<svg
  xmlns="http://www.w3.org/2000/svg"
  viewBox="0 0 841.9 595.3"
  width="100"
  height="100"
>
  <g fill="#61DAFB">
    <path d="M666.3 296.5c0 41.8-4.5 82-13 119.6 0 0 64.1 33.4 74.4 48.4-22 37.3-55.6 78.8-88.8 113.8-38.3 40.6-81.3 67-114.2 79-32.5 12-58 12-71.6 6.5l-1.7-.6c-7.5-3.3-13.3-7.3-16.4-10.2-21.2-16.8-40.6-43.6-58.7-77.2-15.4-28.8-28.6-60.4-38.7-93.9-12.6-42.1-20.4-81.3-23.1-115.1-1.5-17.6-2.3-34.7-2.3-50.9s.8-33.4 2.3-50.9c2.7-33.8 10.5-73 23.1-115.1 10.1-33.5 23.3-65.1 38.7-93.9 18.1-33.5 37.5-60.4 58.7-77.2 3.1-2.8 8.9-6.9 16.4-10.2l1.7-.6c13.6-5.5 39.1-5.5 71.6 6.5 32.9 12 76 38.4 114.2 79 33.2 35 66.8 76.5 88.8 113.8-10.3 15-74.4 48.4-74.4 48.4 8.5 37.6 13 77.8 13 119.6zm-333.3 0c0 41.8 4.5 82 13 119.6 0 0-64.1 33.4-74.4 48.4 22 37.3 55.6 78.8 88.8 113.8 38.3 40.6 81.3 67 114.2 79 32.5 12 58 12 71.6 6.5l1.7-.6c7.5-3.3 13.3-7.3 16.4-10.2 21.2-16.8 40.6-43.6 58.7-77.2 15.4-28.8 28.6-60.4 38.7-93.9 12.6-42.1 20.4-81.3 23.1-115.1 1.5-17.6 2.3-34.7 2.3-50.9s-.8-33.4-2.3-50.9c-2.7-33.8-10.5-73-23.1-115.1-10.1-33.5-23.3-65.1-38.7-93.9-18.1-33.5-37.5-60.4-58.7-77.2-3.1-2.8-8.9-6.9-16.4-10.2l-1.7-.6c-13.6-5.5-39.1-5.5-71.6 6.5-32.9 12-76 38.4-114.2 79-33.2 35-66.8 76.5-88.8 113.8 10.3 15 74.4 48.4 74.4 48.4-8.5 37.6-13 77.8-13 119.6z"/>
    <circle cx="420.9" cy="296.5" r="45.7"/>
  </g>
</svg>
